<svg width="933" height="671" viewBox="0 0 933 671" fill="none" xmlns="http://www.w3.org/2000/svg">
<path fill-rule="evenodd" clip-rule="evenodd" d="M645.036 156.088C660.151 136.567 684.265 125.519 703.437 121.802C712.328 120.077 720.933 125.887 722.658 134.778C724.382 143.669 718.572 152.275 709.681 153.999C695.931 156.665 679.898 164.634 670.969 176.167C666.724 181.649 664.185 187.763 663.844 194.7C663.501 201.688 665.329 210.793 671.953 222.268C678.409 233.45 685.099 238.63 690.872 241.018C696.731 243.442 703.436 243.725 711.114 241.956C727.2 238.25 743.947 226.356 755.451 216.11C762.215 210.087 772.58 210.686 778.604 217.45C784.627 224.213 784.027 234.578 777.264 240.602C764.592 251.888 742.778 268.317 718.477 273.916C705.961 276.8 692.015 276.982 678.337 271.325C664.572 265.632 652.837 254.751 643.55 238.666C634.432 222.873 630.375 207.573 631.087 193.09C631.801 178.555 637.259 166.133 645.036 156.088ZM469.562 256.979C473.945 251.699 481.153 249.707 487.626 251.986L588.416 287.478L553.187 226.458C548.658 218.614 551.346 208.585 559.189 204.057C567.032 199.529 577.061 202.216 581.589 210.059L638.984 309.469C642.415 315.412 641.783 322.863 637.4 328.143C633.016 333.423 625.809 335.415 619.336 333.136L518.545 297.645L553.775 358.665C558.303 366.508 555.616 376.537 547.773 381.066C539.93 385.594 529.901 382.907 525.372 375.063L467.978 275.653C464.546 269.71 465.179 262.259 469.562 256.979ZM402.973 294.248C410.816 289.72 420.845 292.407 425.373 300.251L482.768 399.661C487.296 407.504 484.609 417.533 476.766 422.062C468.922 426.59 458.893 423.903 454.365 416.059L396.97 316.649C392.442 308.806 395.129 298.777 402.973 294.248ZM766.981 142.48C758.417 100.633 785.591 73.3435 800.614 64.6701C808.457 60.1418 818.486 62.8291 823.014 70.6724C827.543 78.5156 824.855 88.5448 817.012 93.0731C809.313 97.5185 794.368 112.724 799.112 135.905C800.928 144.778 795.207 153.443 786.334 155.258C777.461 157.074 768.797 151.353 766.981 142.48ZM287.553 375.774C291.303 367.53 301.026 363.888 309.27 367.638L360.631 391.004C367.66 394.202 371.506 401.87 369.864 409.416L359.499 457.058C357.574 465.908 348.839 471.521 339.99 469.596C331.14 467.67 325.527 458.935 327.452 450.086L335.003 415.376L295.689 397.491C287.445 393.741 283.803 384.018 287.553 375.774Z" fill="#153989"/>
<path d="M486.972 467.588L496.152 511.391L486.419 517.01L477.277 463.056L483.47 459.48L486.972 467.588ZM518.272 498.619L484.897 468.786L479.535 461.752L485.789 458.141L528.035 492.982L518.272 498.619ZM508.175 482.4L512.315 489.57L488.852 503.116L484.712 495.946L508.175 482.4Z" fill="#153989"/>
<path d="M554.472 458.07L563.595 452.803C565.138 455.899 565.847 459.029 565.721 462.193C565.616 465.346 564.637 468.325 562.785 471.13C560.953 473.923 558.217 476.371 554.576 478.473C551.728 480.117 548.894 481.103 546.072 481.43C543.239 481.737 540.484 481.429 537.809 480.505C535.154 479.57 532.652 478.032 530.303 475.889C527.954 473.747 525.84 471.048 523.961 467.794L522.182 464.712C520.303 461.458 519.033 458.272 518.372 455.155C517.72 452.005 517.663 449.041 518.202 446.263C518.76 443.472 519.881 440.927 521.563 438.626C523.245 436.326 525.48 434.372 528.267 432.763C531.969 430.625 535.478 429.494 538.796 429.369C542.134 429.231 545.186 429.937 547.952 431.486C550.738 433.024 553.142 435.216 555.165 438.062L546.012 443.346C544.877 441.615 543.646 440.305 542.319 439.417C540.981 438.508 539.509 438.096 537.905 438.182C536.308 438.236 534.493 438.85 532.459 440.024C530.934 440.905 529.766 441.959 528.955 443.186C528.145 444.413 527.688 445.83 527.585 447.436C527.481 449.041 527.747 450.841 528.382 452.833C529.026 454.794 530.029 456.954 531.391 459.314L533.206 462.456C534.533 464.755 535.874 466.679 537.23 468.228C538.574 469.758 539.948 470.917 541.353 471.706C542.766 472.463 544.219 472.818 545.71 472.77C547.21 472.691 548.774 472.181 550.401 471.242C552.313 470.138 553.713 468.923 554.602 467.596C555.49 466.27 555.914 464.818 555.872 463.242C555.85 461.655 555.383 459.931 554.472 458.07Z" fill="#153989"/>
<path d="M580.538 413.568L589.718 457.37L579.985 462.99L570.843 409.036L577.037 405.46L580.538 413.568ZM611.838 444.599L578.463 414.766L573.101 407.732L579.355 404.121L621.602 438.962L611.838 444.599ZM601.741 428.379L605.881 435.549L582.418 449.096L578.278 441.925L601.741 428.379Z" fill="#153989"/>
<path d="M644.983 425.463L635.311 431.047L631.25 423.872L640.861 418.323C643.261 416.938 644.974 415.23 645.999 413.201C647.012 411.151 647.331 408.838 646.956 406.261C646.6 403.673 645.565 400.894 643.851 397.924L642.6 395.758C641.285 393.48 639.884 391.617 638.398 390.17C636.931 388.711 635.39 387.662 633.773 387.023C632.156 386.383 630.496 386.162 628.793 386.359C627.078 386.535 625.335 387.134 623.566 388.156L613.619 393.899L609.48 386.729L619.426 380.986C622.396 379.271 625.405 378.212 628.453 377.808C631.51 377.372 634.484 377.567 637.375 378.393C640.266 379.22 642.951 380.653 645.43 382.693C647.919 384.7 650.079 387.291 651.911 390.464L653.126 392.569C654.946 395.722 656.11 398.888 656.616 402.067C657.143 405.234 657.042 408.276 656.312 411.193C655.59 414.077 654.272 416.75 652.358 419.212C650.451 421.641 647.993 423.725 644.983 425.463ZM614.85 383.628L640.498 428.052L631.344 433.337L605.696 388.913L614.85 383.628Z" fill="#153989"/>
<path d="M703.296 382.276L707.418 389.416L683.772 403.068L679.65 395.928L703.296 382.276ZM661.114 356.918L686.762 401.342L677.609 406.626L651.961 362.202L661.114 356.918ZM689.134 364.864L693.151 371.821L672.586 383.693L668.57 376.737L689.134 364.864ZM681.739 345.01L685.879 352.18L662.263 365.814L658.124 358.644L681.739 345.01Z" fill="#153989"/>
<path d="M696.913 336.249L704.663 331.775L734.905 357.803L727.485 318.598L735.235 314.124L744.834 367.814L738.61 371.407L696.913 336.249ZM692.733 338.662L700.452 334.206L720.211 365.188L727.504 377.819L718.381 383.086L692.733 338.662ZM731.696 316.167L739.445 311.693L765.094 356.117L755.94 361.402L748.647 348.77L731.696 316.167Z" fill="#153989"/>
<path d="M758.341 300.783L779.313 315.687L776.892 290.073L786.869 284.313L788.566 321.004L797.903 337.175L788.627 342.53L779.291 326.359L748.334 306.561L758.341 300.783Z" fill="#153989"/>
<path fill-rule="evenodd" clip-rule="evenodd" d="M486.315 270.819C510.778 274.148 532.402 289.507 545.208 304.252C551.147 311.09 550.418 321.447 543.58 327.386C536.743 333.324 526.385 332.595 520.447 325.758C511.263 315.183 496.345 305.283 481.892 303.316C475.023 302.381 468.458 303.239 462.28 306.413C456.056 309.609 449.085 315.745 442.46 327.219C436.004 338.401 434.863 346.785 435.681 352.979C436.512 359.265 439.619 365.213 444.989 370.977C456.243 383.056 474.917 391.612 489.542 396.452C498.14 399.297 502.803 408.574 499.958 417.172C497.113 425.77 487.836 430.434 479.238 427.588C463.127 422.257 437.993 411.58 420.994 393.334C412.238 383.937 405.107 371.951 403.167 357.276C401.216 342.509 404.771 326.905 414.057 310.821C423.175 295.028 434.397 283.864 447.296 277.239C460.24 270.59 473.727 269.106 486.315 270.819ZM311.204 169.299C317.968 170.455 323.297 175.701 324.559 182.446L344.218 287.479L379.448 226.459C383.977 218.616 394.006 215.929 401.849 220.457C409.692 224.985 412.379 235.014 407.851 242.858L350.457 342.268C347.025 348.211 340.257 351.389 333.492 350.233C326.728 349.076 321.399 343.831 320.137 337.086L300.478 232.052L265.248 293.073C260.719 300.916 250.69 303.603 242.847 299.075C235.004 294.546 232.317 284.517 236.845 276.674L294.239 177.264C297.671 171.321 304.439 168.143 311.204 169.299ZM245.633 130.265C253.476 134.794 256.163 144.823 251.635 152.666L194.24 252.076C189.712 259.92 179.683 262.607 171.84 258.079C163.996 253.55 161.309 243.521 165.837 235.678L223.232 136.268C227.76 128.424 237.789 125.737 245.633 130.265ZM559.072 369.622C591.031 341.282 628.251 351.17 643.274 359.844C651.117 364.372 653.804 374.401 649.276 382.244C644.748 390.088 634.719 392.775 626.875 388.247C619.176 383.801 598.535 378.462 580.832 394.161C574.056 400.169 563.691 399.547 557.682 392.771C551.674 385.995 552.296 375.631 559.072 369.622ZM117.32 71.072C126.334 70.1981 134.35 76.7972 135.224 85.8115L140.669 141.974C141.414 149.66 136.696 156.825 129.34 159.176L82.8989 174.021C74.2723 176.779 65.0437 172.021 62.2862 163.394C59.5287 154.768 64.2866 145.539 72.9132 142.781L106.748 131.966L102.58 88.9764C101.706 79.9621 108.305 71.946 117.32 71.072Z" fill="#153989"/>
<path d="M137.516 289.68L104.172 319.531L94.4389 313.911L136.594 279.017L142.787 282.593L137.516 289.68ZM126.292 332.302L135.441 288.482L138.851 280.321L145.106 283.932L136.056 337.939L126.292 332.302ZM135.291 315.448L131.151 322.618L107.688 309.072L111.828 301.902L135.291 315.448Z" fill="#153989"/>
<path d="M179.509 343.378L188.632 348.645C186.722 351.529 184.366 353.708 181.563 355.181C178.78 356.666 175.711 357.308 172.355 357.107C169.021 356.917 165.533 355.771 161.892 353.669C159.044 352.025 156.773 350.063 155.079 347.783C153.397 345.483 152.286 342.943 151.748 340.164C151.23 337.397 151.312 334.461 151.993 331.356C152.674 328.25 153.954 325.07 155.833 321.816L157.612 318.734C159.491 315.48 161.615 312.787 163.984 310.656C166.386 308.517 168.924 306.986 171.6 306.063C174.295 305.151 177.06 304.849 179.893 305.156C182.727 305.462 185.537 306.42 188.323 308.029C192.025 310.167 194.76 312.64 196.527 315.451C198.315 318.273 199.23 321.269 199.271 324.439C199.333 327.621 198.637 330.799 197.183 333.974L188.03 328.689C188.962 326.84 189.481 325.119 189.587 323.526C189.705 321.913 189.325 320.433 188.449 319.086C187.604 317.73 186.165 316.465 184.131 315.291C182.605 314.41 181.108 313.926 179.641 313.838C178.173 313.749 176.718 314.062 175.275 314.775C173.833 315.488 172.408 316.618 170.999 318.165C169.623 319.702 168.254 321.651 166.892 324.011L165.077 327.153C163.75 329.452 162.755 331.576 162.091 333.525C161.438 335.453 161.122 337.223 161.141 338.834C161.192 340.437 161.611 341.872 162.397 343.14C163.216 344.399 164.439 345.498 166.067 346.438C167.979 347.542 169.731 348.147 171.324 348.253C172.917 348.359 174.386 348 175.73 347.176C177.094 346.363 178.354 345.097 179.509 343.378Z" fill="#153989"/>
<path d="M231.082 343.7L197.738 373.551L188.005 367.932L230.16 333.038L236.353 336.614L231.082 343.7ZM219.859 386.322L229.008 342.502L232.418 334.341L238.672 337.953L229.622 391.959L219.859 386.322ZM228.857 369.468L224.717 376.638L201.254 363.092L205.394 355.922L228.857 369.468Z" fill="#153989"/>
<path d="M253.003 405.459L243.331 399.874L247.514 392.77L257.125 398.319C259.525 399.705 261.861 400.334 264.131 400.207C266.412 400.06 268.575 399.18 270.619 397.566C272.682 395.964 274.572 393.679 276.286 390.709L277.537 388.543C278.852 386.264 279.765 384.12 280.275 382.109C280.805 380.11 280.943 378.251 280.689 376.531C280.434 374.811 279.796 373.262 278.774 371.886C277.763 370.489 276.373 369.279 274.603 368.257L264.657 362.515L268.796 355.345L278.743 361.087C281.713 362.802 284.135 364.878 286.009 367.316C287.915 369.746 289.233 372.419 289.963 375.335C290.693 378.252 290.794 381.294 290.267 384.461C289.772 387.62 288.609 390.786 286.777 393.959L285.562 396.064C283.741 399.217 281.581 401.807 279.081 403.835C276.602 405.875 273.917 407.308 271.026 408.135C268.167 408.952 265.193 409.147 262.104 408.72C259.047 408.284 256.014 407.197 253.003 405.459ZM274.166 358.445L248.518 402.869L239.365 397.584L265.013 353.16L274.166 358.445Z" fill="#153989"/>
<path d="M319.56 434.366L315.438 441.506L291.792 427.853L295.914 420.714L319.56 434.366ZM320.431 385.156L294.782 429.58L285.629 424.295L311.277 379.871L320.431 385.156ZM327.559 413.395L323.543 420.352L302.978 408.479L306.995 401.523L327.559 413.395ZM341.056 397.064L336.916 404.234L313.301 390.6L317.441 383.43L341.056 397.064Z" fill="#153989"/>
<path d="M356.23 405.824L363.98 410.299L356.56 449.503L386.802 423.475L394.552 427.95L352.855 463.108L346.63 459.514L356.23 405.824ZM352.05 403.411L359.769 407.868L342.817 440.471L335.524 453.102L326.402 447.835L352.05 403.411ZM391.012 425.906L398.762 430.381L373.114 474.804L363.961 469.52L371.253 456.888L391.012 425.906Z" fill="#153989"/>
<path d="M417.658 441.29L415.237 466.905L436.209 452L446.186 457.761L415.259 477.576L405.923 493.747L396.648 488.392L405.984 472.221L407.651 435.512L417.658 441.29Z" fill="#153989"/>
<path d="M466.05 66.6787L743.81 519.92H188.29L466.05 66.6787Z" fill="white"/>
<path d="M431.643 77.6514H499.61L469.025 221.58H530.194L446.936 442.27L465.627 271.955H401.059L431.643 77.6514Z" fill="#153989" stroke="#143888" stroke-width="16" stroke-linejoin="round"/>
<path d="M260.688 31.9414V15.8672H266.312V37H261.02L260.688 31.9414ZM261.312 27.6055L262.973 27.5664C262.973 28.9727 262.81 30.2812 262.484 31.4922C262.159 32.6901 261.671 33.7318 261.02 34.6172C260.368 35.4896 259.548 36.1732 258.559 36.668C257.569 37.1497 256.404 37.3906 255.062 37.3906C254.034 37.3906 253.083 37.2474 252.211 36.9609C251.352 36.6615 250.609 36.1992 249.984 35.5742C249.372 34.9362 248.891 34.1224 248.539 33.1328C248.201 32.1302 248.031 30.9258 248.031 29.5195V15.8672H253.656V29.5586C253.656 30.1836 253.728 30.7109 253.871 31.1406C254.027 31.5703 254.242 31.9219 254.516 32.1953C254.789 32.4688 255.108 32.6641 255.473 32.7812C255.85 32.8984 256.267 32.957 256.723 32.957C257.882 32.957 258.793 32.7227 259.457 32.2539C260.134 31.7852 260.609 31.1471 260.883 30.3398C261.169 29.5195 261.312 28.6081 261.312 27.6055ZM286.709 31.9414V15.8672H292.334V37H287.041L286.709 31.9414ZM287.334 27.6055L288.995 27.5664C288.995 28.9727 288.832 30.2812 288.506 31.4922C288.181 32.6901 287.692 33.7318 287.041 34.6172C286.39 35.4896 285.57 36.1732 284.58 36.668C283.591 37.1497 282.426 37.3906 281.084 37.3906C280.056 37.3906 279.105 37.2474 278.233 36.9609C277.373 36.6615 276.631 36.1992 276.006 35.5742C275.394 34.9362 274.913 34.1224 274.561 33.1328C274.222 32.1302 274.053 30.9258 274.053 29.5195V15.8672H279.678V29.5586C279.678 30.1836 279.75 30.7109 279.893 31.1406C280.049 31.5703 280.264 31.9219 280.538 32.1953C280.811 32.4688 281.13 32.6641 281.495 32.7812C281.872 32.8984 282.289 32.957 282.745 32.957C283.903 32.957 284.815 32.7227 285.479 32.2539C286.156 31.7852 286.631 31.1471 286.905 30.3398C287.191 29.5195 287.334 28.6081 287.334 27.6055ZM312.731 31.9414V15.8672H318.356V37H313.063L312.731 31.9414ZM313.356 27.6055L315.016 27.5664C315.016 28.9727 314.854 30.2812 314.528 31.4922C314.203 32.6901 313.714 33.7318 313.063 34.6172C312.412 35.4896 311.592 36.1732 310.602 36.668C309.613 37.1497 308.447 37.3906 307.106 37.3906C306.078 37.3906 305.127 37.2474 304.255 36.9609C303.395 36.6615 302.653 36.1992 302.028 35.5742C301.416 34.9362 300.934 34.1224 300.583 33.1328C300.244 32.1302 300.075 30.9258 300.075 29.5195V15.8672H305.7V29.5586C305.7 30.1836 305.772 30.7109 305.915 31.1406C306.071 31.5703 306.286 31.9219 306.559 32.1953C306.833 32.4688 307.152 32.6641 307.516 32.7812C307.894 32.8984 308.311 32.957 308.766 32.957C309.925 32.957 310.837 32.7227 311.501 32.2539C312.178 31.7852 312.653 31.1471 312.927 30.3398C313.213 29.5195 313.356 28.6081 313.356 27.6055ZM338.753 31.9414V15.8672H344.378V37H339.085L338.753 31.9414ZM339.378 27.6055L341.038 27.5664C341.038 28.9727 340.876 30.2812 340.55 31.4922C340.224 32.6901 339.736 33.7318 339.085 34.6172C338.434 35.4896 337.614 36.1732 336.624 36.668C335.635 37.1497 334.469 37.3906 333.128 37.3906C332.099 37.3906 331.149 37.2474 330.277 36.9609C329.417 36.6615 328.675 36.1992 328.05 35.5742C327.438 34.9362 326.956 34.1224 326.605 33.1328C326.266 32.1302 326.097 30.9258 326.097 29.5195V15.8672H331.722V29.5586C331.722 30.1836 331.793 30.7109 331.937 31.1406C332.093 31.5703 332.308 31.9219 332.581 32.1953C332.855 32.4688 333.174 32.6641 333.538 32.7812C333.916 32.8984 334.333 32.957 334.788 32.957C335.947 32.957 336.859 32.7227 337.523 32.2539C338.2 31.7852 338.675 31.1471 338.948 30.3398C339.235 29.5195 339.378 28.6081 339.378 27.6055ZM364.775 31.9414V15.8672H370.4V37H365.107L364.775 31.9414ZM365.4 27.6055L367.06 27.5664C367.06 28.9727 366.897 30.2812 366.572 31.4922C366.246 32.6901 365.758 33.7318 365.107 34.6172C364.456 35.4896 363.636 36.1732 362.646 36.668C361.657 37.1497 360.491 37.3906 359.15 37.3906C358.121 37.3906 357.171 37.2474 356.298 36.9609C355.439 36.6615 354.697 36.1992 354.072 35.5742C353.46 34.9362 352.978 34.1224 352.627 33.1328C352.288 32.1302 352.119 30.9258 352.119 29.5195V15.8672H357.744V29.5586C357.744 30.1836 357.815 30.7109 357.959 31.1406C358.115 31.5703 358.33 31.9219 358.603 32.1953C358.877 32.4688 359.196 32.6641 359.56 32.7812C359.938 32.8984 360.354 32.957 360.81 32.957C361.969 32.957 362.88 32.7227 363.545 32.2539C364.222 31.7852 364.697 31.1471 364.97 30.3398C365.257 29.5195 365.4 28.6081 365.4 27.6055ZM390.797 31.9414V15.8672H396.422V37H391.129L390.797 31.9414ZM391.422 27.6055L393.082 27.5664C393.082 28.9727 392.919 30.2812 392.594 31.4922C392.268 32.6901 391.78 33.7318 391.129 34.6172C390.478 35.4896 389.658 36.1732 388.668 36.668C387.678 37.1497 386.513 37.3906 385.172 37.3906C384.143 37.3906 383.193 37.2474 382.32 36.9609C381.461 36.6615 380.719 36.1992 380.094 35.5742C379.482 34.9362 379 34.1224 378.648 33.1328C378.31 32.1302 378.141 30.9258 378.141 29.5195V15.8672H383.766V29.5586C383.766 30.1836 383.837 30.7109 383.98 31.1406C384.137 31.5703 384.352 31.9219 384.625 32.1953C384.898 32.4688 385.217 32.6641 385.582 32.7812C385.96 32.8984 386.376 32.957 386.832 32.957C387.991 32.957 388.902 32.7227 389.566 32.2539C390.243 31.7852 390.719 31.1471 390.992 30.3398C391.279 29.5195 391.422 28.6081 391.422 27.6055ZM416.819 31.9414V15.8672H422.444V37H417.151L416.819 31.9414ZM417.444 27.6055L419.104 27.5664C419.104 28.9727 418.941 30.2812 418.616 31.4922C418.29 32.6901 417.802 33.7318 417.151 34.6172C416.5 35.4896 415.679 36.1732 414.69 36.668C413.7 37.1497 412.535 37.3906 411.194 37.3906C410.165 37.3906 409.215 37.2474 408.342 36.9609C407.483 36.6615 406.741 36.1992 406.116 35.5742C405.504 34.9362 405.022 34.1224 404.67 33.1328C404.332 32.1302 404.163 30.9258 404.163 29.5195V15.8672H409.788V29.5586C409.788 30.1836 409.859 30.7109 410.002 31.1406C410.159 31.5703 410.373 31.9219 410.647 32.1953C410.92 32.4688 411.239 32.6641 411.604 32.7812C411.982 32.8984 412.398 32.957 412.854 32.957C414.013 32.957 414.924 32.7227 415.588 32.2539C416.265 31.7852 416.741 31.1471 417.014 30.3398C417.301 29.5195 417.444 28.6081 417.444 27.6055ZM435.966 19.9297V45.125H430.341V15.8672H435.555L435.966 19.9297ZM449.345 26.1992V26.6094C449.345 28.1458 449.162 29.5716 448.798 30.8867C448.446 32.2018 447.925 33.3477 447.235 34.3242C446.545 35.2878 445.686 36.043 444.657 36.5898C443.641 37.1237 442.47 37.3906 441.141 37.3906C439.852 37.3906 438.733 37.1302 437.782 36.6094C436.832 36.0885 436.031 35.3594 435.38 34.4219C434.742 33.4714 434.227 32.3711 433.837 31.1211C433.446 29.8711 433.147 28.5299 432.938 27.0977V26.0234C433.147 24.487 433.446 23.0807 433.837 21.8047C434.227 20.5156 434.742 19.4023 435.38 18.4648C436.031 17.5143 436.825 16.7786 437.762 16.2578C438.713 15.737 439.826 15.4766 441.102 15.4766C442.443 15.4766 443.622 15.7305 444.637 16.2383C445.666 16.7461 446.526 17.4753 447.216 18.4258C447.919 19.3763 448.446 20.5091 448.798 21.8242C449.162 23.1393 449.345 24.5977 449.345 26.1992ZM443.7 26.6094V26.1992C443.7 25.3008 443.622 24.474 443.466 23.7188C443.322 22.9505 443.088 22.2799 442.762 21.707C442.45 21.1341 442.033 20.6914 441.512 20.3789C441.005 20.0534 440.386 19.8906 439.657 19.8906C438.889 19.8906 438.231 20.0143 437.684 20.2617C437.151 20.5091 436.714 20.8672 436.376 21.3359C436.037 21.8047 435.783 22.3646 435.614 23.0156C435.445 23.6667 435.341 24.4023 435.302 25.2227V27.9375C435.367 28.901 435.549 29.7669 435.848 30.5352C436.148 31.2904 436.61 31.8893 437.235 32.332C437.86 32.7747 438.68 32.9961 439.696 32.9961C440.438 32.9961 441.063 32.8333 441.571 32.5078C442.079 32.1693 442.489 31.707 442.802 31.1211C443.127 30.5352 443.355 29.8581 443.485 29.0898C443.628 28.3216 443.7 27.4948 443.7 26.6094ZM462.066 19.9297V45.125H456.441V15.8672H461.655L462.066 19.9297ZM475.445 26.1992V26.6094C475.445 28.1458 475.262 29.5716 474.898 30.8867C474.546 32.2018 474.025 33.3477 473.335 34.3242C472.645 35.2878 471.786 36.043 470.757 36.5898C469.741 37.1237 468.57 37.3906 467.241 37.3906C465.952 37.3906 464.833 37.1302 463.882 36.6094C462.932 36.0885 462.131 35.3594 461.48 34.4219C460.842 33.4714 460.327 32.3711 459.937 31.1211C459.546 29.8711 459.247 28.5299 459.038 27.0977V26.0234C459.247 24.487 459.546 23.0807 459.937 21.8047C460.327 20.5156 460.842 19.4023 461.48 18.4648C462.131 17.5143 462.925 16.7786 463.863 16.2578C464.813 15.737 465.926 15.4766 467.202 15.4766C468.543 15.4766 469.722 15.7305 470.738 16.2383C471.766 16.7461 472.626 17.4753 473.316 18.4258C474.019 19.3763 474.546 20.5091 474.898 21.8242C475.262 23.1393 475.445 24.5977 475.445 26.1992ZM469.8 26.6094V26.1992C469.8 25.3008 469.722 24.474 469.566 23.7188C469.422 22.9505 469.188 22.2799 468.863 21.707C468.55 21.1341 468.133 20.6914 467.613 20.3789C467.105 20.0534 466.486 19.8906 465.757 19.8906C464.989 19.8906 464.331 20.0143 463.784 20.2617C463.251 20.5091 462.814 20.8672 462.476 21.3359C462.137 21.8047 461.883 22.3646 461.714 23.0156C461.545 23.6667 461.441 24.4023 461.402 25.2227V27.9375C461.467 28.901 461.649 29.7669 461.948 30.5352C462.248 31.2904 462.71 31.8893 463.335 32.332C463.96 32.7747 464.78 32.9961 465.796 32.9961C466.538 32.9961 467.163 32.8333 467.671 32.5078C468.179 32.1693 468.589 31.707 468.902 31.1211C469.227 30.5352 469.455 29.8581 469.585 29.0898C469.728 28.3216 469.8 27.4948 469.8 26.6094ZM488.166 19.9297V45.125H482.541V15.8672H487.755L488.166 19.9297ZM501.545 26.1992V26.6094C501.545 28.1458 501.362 29.5716 500.998 30.8867C500.646 32.2018 500.125 33.3477 499.435 34.3242C498.745 35.2878 497.886 36.043 496.857 36.5898C495.841 37.1237 494.67 37.3906 493.341 37.3906C492.052 37.3906 490.933 37.1302 489.982 36.6094C489.032 36.0885 488.231 35.3594 487.58 34.4219C486.942 33.4714 486.427 32.3711 486.037 31.1211C485.646 29.8711 485.347 28.5299 485.138 27.0977V26.0234C485.347 24.487 485.646 23.0807 486.037 21.8047C486.427 20.5156 486.942 19.4023 487.58 18.4648C488.231 17.5143 489.025 16.7786 489.962 16.2578C490.913 15.737 492.026 15.4766 493.302 15.4766C494.643 15.4766 495.822 15.7305 496.837 16.2383C497.866 16.7461 498.726 17.4753 499.416 18.4258C500.119 19.3763 500.646 20.5091 500.998 21.8242C501.362 23.1393 501.545 24.5977 501.545 26.1992ZM495.9 26.6094V26.1992C495.9 25.3008 495.822 24.474 495.666 23.7188C495.522 22.9505 495.288 22.2799 494.962 21.707C494.65 21.1341 494.233 20.6914 493.712 20.3789C493.205 20.0534 492.586 19.8906 491.857 19.8906C491.089 19.8906 490.431 20.0143 489.884 20.2617C489.351 20.5091 488.914 20.8672 488.576 21.3359C488.237 21.8047 487.983 22.3646 487.814 23.0156C487.645 23.6667 487.541 24.4023 487.502 25.2227V27.9375C487.567 28.901 487.749 29.7669 488.048 30.5352C488.348 31.2904 488.81 31.8893 489.435 32.332C490.06 32.7747 490.88 32.9961 491.896 32.9961C492.638 32.9961 493.263 32.8333 493.771 32.5078C494.279 32.1693 494.689 31.707 495.002 31.1211C495.327 30.5352 495.555 29.8581 495.685 29.0898C495.828 28.3216 495.9 27.4948 495.9 26.6094ZM514.266 19.9297V45.125H508.641V15.8672H513.855L514.266 19.9297ZM527.645 26.1992V26.6094C527.645 28.1458 527.462 29.5716 527.098 30.8867C526.746 32.2018 526.225 33.3477 525.535 34.3242C524.845 35.2878 523.986 36.043 522.957 36.5898C521.941 37.1237 520.77 37.3906 519.441 37.3906C518.152 37.3906 517.033 37.1302 516.082 36.6094C515.132 36.0885 514.331 35.3594 513.68 34.4219C513.042 33.4714 512.527 32.3711 512.137 31.1211C511.746 29.8711 511.447 28.5299 511.238 27.0977V26.0234C511.447 24.487 511.746 23.0807 512.137 21.8047C512.527 20.5156 513.042 19.4023 513.68 18.4648C514.331 17.5143 515.125 16.7786 516.062 16.2578C517.013 15.737 518.126 15.4766 519.402 15.4766C520.743 15.4766 521.922 15.7305 522.938 16.2383C523.966 16.7461 524.826 17.4753 525.516 18.4258C526.219 19.3763 526.746 20.5091 527.098 21.8242C527.462 23.1393 527.645 24.5977 527.645 26.1992ZM522 26.6094V26.1992C522 25.3008 521.922 24.474 521.766 23.7188C521.622 22.9505 521.388 22.2799 521.062 21.707C520.75 21.1341 520.333 20.6914 519.812 20.3789C519.305 20.0534 518.686 19.8906 517.957 19.8906C517.189 19.8906 516.531 20.0143 515.984 20.2617C515.451 20.5091 515.014 20.8672 514.676 21.3359C514.337 21.8047 514.083 22.3646 513.914 23.0156C513.745 23.6667 513.641 24.4023 513.602 25.2227V27.9375C513.667 28.901 513.849 29.7669 514.148 30.5352C514.448 31.2904 514.91 31.8893 515.535 32.332C516.16 32.7747 516.98 32.9961 517.996 32.9961C518.738 32.9961 519.363 32.8333 519.871 32.5078C520.379 32.1693 520.789 31.707 521.102 31.1211C521.427 30.5352 521.655 29.8581 521.785 29.0898C521.928 28.3216 522 27.4948 522 26.6094ZM540.366 19.9297V45.125H534.741V15.8672H539.955L540.366 19.9297ZM553.745 26.1992V26.6094C553.745 28.1458 553.562 29.5716 553.198 30.8867C552.846 32.2018 552.325 33.3477 551.635 34.3242C550.945 35.2878 550.086 36.043 549.057 36.5898C548.041 37.1237 546.87 37.3906 545.541 37.3906C544.252 37.3906 543.133 37.1302 542.182 36.6094C541.232 36.0885 540.431 35.3594 539.78 34.4219C539.142 33.4714 538.627 32.3711 538.237 31.1211C537.846 29.8711 537.547 28.5299 537.338 27.0977V26.0234C537.547 24.487 537.846 23.0807 538.237 21.8047C538.627 20.5156 539.142 19.4023 539.78 18.4648C540.431 17.5143 541.225 16.7786 542.163 16.2578C543.113 15.737 544.226 15.4766 545.502 15.4766C546.843 15.4766 548.022 15.7305 549.038 16.2383C550.066 16.7461 550.926 17.4753 551.616 18.4258C552.319 19.3763 552.846 20.5091 553.198 21.8242C553.562 23.1393 553.745 24.5977 553.745 26.1992ZM548.1 26.6094V26.1992C548.1 25.3008 548.022 24.474 547.866 23.7188C547.722 22.9505 547.488 22.2799 547.163 21.707C546.85 21.1341 546.433 20.6914 545.913 20.3789C545.405 20.0534 544.786 19.8906 544.057 19.8906C543.289 19.8906 542.631 20.0143 542.084 20.2617C541.551 20.5091 541.114 20.8672 540.776 21.3359C540.437 21.8047 540.183 22.3646 540.014 23.0156C539.845 23.6667 539.741 24.4023 539.702 25.2227V27.9375C539.767 28.901 539.949 29.7669 540.248 30.5352C540.548 31.2904 541.01 31.8893 541.635 32.332C542.26 32.7747 543.08 32.9961 544.096 32.9961C544.838 32.9961 545.463 32.8333 545.971 32.5078C546.479 32.1693 546.889 31.707 547.202 31.1211C547.527 30.5352 547.755 29.8581 547.885 29.0898C548.028 28.3216 548.1 27.4948 548.1 26.6094ZM572.266 31.1602C572.266 30.7565 572.149 30.3919 571.915 30.0664C571.68 29.7409 571.244 29.4414 570.606 29.168C569.981 28.8815 569.076 28.6211 567.891 28.3867C566.824 28.1523 565.828 27.8594 564.903 27.5078C563.992 27.1432 563.197 26.707 562.52 26.1992C561.856 25.6914 561.335 25.0924 560.958 24.4023C560.58 23.6992 560.391 22.8984 560.391 22C560.391 21.1146 560.58 20.2812 560.958 19.5C561.348 18.7188 561.902 18.0286 562.618 17.4297C563.347 16.8177 564.233 16.3424 565.274 16.0039C566.329 15.6523 567.514 15.4766 568.829 15.4766C570.665 15.4766 572.24 15.7695 573.555 16.3555C574.884 16.9414 575.899 17.7487 576.602 18.7773C577.319 19.793 577.677 20.9518 577.677 22.2539H572.052C572.052 21.707 571.934 21.2188 571.7 20.7891C571.479 20.3464 571.127 20.0013 570.645 19.7539C570.177 19.4935 569.565 19.3633 568.809 19.3633C568.184 19.3633 567.644 19.474 567.188 19.6953C566.733 19.9036 566.381 20.1901 566.134 20.5547C565.899 20.9062 565.782 21.2969 565.782 21.7266C565.782 22.0521 565.847 22.3451 565.977 22.6055C566.121 22.8529 566.348 23.0807 566.661 23.2891C566.973 23.4974 567.377 23.6927 567.872 23.875C568.38 24.0443 569.005 24.2005 569.747 24.3438C571.27 24.6562 572.631 25.0664 573.829 25.5742C575.027 26.069 575.977 26.7461 576.68 27.6055C577.384 28.4518 577.735 29.5651 577.735 30.9453C577.735 31.8828 577.527 32.7422 577.11 33.5234C576.694 34.3047 576.095 34.9883 575.313 35.5742C574.532 36.1471 573.595 36.5964 572.501 36.9219C571.42 37.2344 570.203 37.3906 568.848 37.3906C566.882 37.3906 565.216 37.0391 563.848 36.3359C562.494 35.6328 561.466 34.7409 560.763 33.6602C560.072 32.5664 559.727 31.4466 559.727 30.3008H565.059C565.085 31.069 565.281 31.6875 565.645 32.1562C566.023 32.625 566.498 32.9635 567.071 33.1719C567.657 33.3802 568.289 33.4844 568.966 33.4844C569.695 33.4844 570.3 33.3867 570.782 33.1914C571.264 32.9831 571.628 32.7096 571.876 32.3711C572.136 32.0195 572.266 31.6159 572.266 31.1602ZM596.413 31.1602C596.413 30.7565 596.296 30.3919 596.062 30.0664C595.827 29.7409 595.391 29.4414 594.753 29.168C594.128 28.8815 593.223 28.6211 592.038 28.3867C590.971 28.1523 589.974 27.8594 589.05 27.5078C588.139 27.1432 587.344 26.707 586.667 26.1992C586.003 25.6914 585.482 25.0924 585.105 24.4023C584.727 23.6992 584.538 22.8984 584.538 22C584.538 21.1146 584.727 20.2812 585.105 19.5C585.495 18.7188 586.049 18.0286 586.765 17.4297C587.494 16.8177 588.379 16.3424 589.421 16.0039C590.476 15.6523 591.661 15.4766 592.976 15.4766C594.812 15.4766 596.387 15.7695 597.702 16.3555C599.03 16.9414 600.046 17.7487 600.749 18.7773C601.465 19.793 601.823 20.9518 601.823 22.2539H596.198C596.198 21.707 596.081 21.2188 595.847 20.7891C595.626 20.3464 595.274 20.0013 594.792 19.7539C594.323 19.4935 593.711 19.3633 592.956 19.3633C592.331 19.3633 591.791 19.474 591.335 19.6953C590.879 19.9036 590.528 20.1901 590.28 20.5547C590.046 20.9062 589.929 21.2969 589.929 21.7266C589.929 22.0521 589.994 22.3451 590.124 22.6055C590.267 22.8529 590.495 23.0807 590.808 23.2891C591.12 23.4974 591.524 23.6927 592.019 23.875C592.527 24.0443 593.152 24.2005 593.894 24.3438C595.417 24.6562 596.778 25.0664 597.976 25.5742C599.174 26.069 600.124 26.7461 600.827 27.6055C601.53 28.4518 601.882 29.5651 601.882 30.9453C601.882 31.8828 601.674 32.7422 601.257 33.5234C600.84 34.3047 600.241 34.9883 599.46 35.5742C598.679 36.1471 597.741 36.5964 596.648 36.9219C595.567 37.2344 594.349 37.3906 592.995 37.3906C591.029 37.3906 589.362 37.0391 587.995 36.3359C586.641 35.6328 585.612 34.7409 584.909 33.6602C584.219 32.5664 583.874 31.4466 583.874 30.3008H589.206C589.232 31.069 589.428 31.6875 589.792 32.1562C590.17 32.625 590.645 32.9635 591.218 33.1719C591.804 33.3802 592.435 33.4844 593.112 33.4844C593.842 33.4844 594.447 33.3867 594.929 33.1914C595.411 32.9831 595.775 32.7096 596.023 32.3711C596.283 32.0195 596.413 31.6159 596.413 31.1602ZM620.56 31.1602C620.56 30.7565 620.443 30.3919 620.209 30.0664C619.974 29.7409 619.538 29.4414 618.9 29.168C618.275 28.8815 617.37 28.6211 616.185 28.3867C615.117 28.1523 614.121 27.8594 613.197 27.5078C612.285 27.1432 611.491 26.707 610.814 26.1992C610.15 25.6914 609.629 25.0924 609.252 24.4023C608.874 23.6992 608.685 22.8984 608.685 22C608.685 21.1146 608.874 20.2812 609.252 19.5C609.642 18.7188 610.196 18.0286 610.912 17.4297C611.641 16.8177 612.526 16.3424 613.568 16.0039C614.623 15.6523 615.808 15.4766 617.123 15.4766C618.959 15.4766 620.534 15.7695 621.849 16.3555C623.177 16.9414 624.193 17.7487 624.896 18.7773C625.612 19.793 625.97 20.9518 625.97 22.2539H620.345C620.345 21.707 620.228 21.2188 619.994 20.7891C619.772 20.3464 619.421 20.0013 618.939 19.7539C618.47 19.4935 617.858 19.3633 617.103 19.3633C616.478 19.3633 615.938 19.474 615.482 19.6953C615.026 19.9036 614.675 20.1901 614.427 20.5547C614.193 20.9062 614.076 21.2969 614.076 21.7266C614.076 22.0521 614.141 22.3451 614.271 22.6055C614.414 22.8529 614.642 23.0807 614.955 23.2891C615.267 23.4974 615.671 23.6927 616.166 23.875C616.673 24.0443 617.298 24.2005 618.041 24.3438C619.564 24.6562 620.925 25.0664 622.123 25.5742C623.321 26.069 624.271 26.7461 624.974 27.6055C625.677 28.4518 626.029 29.5651 626.029 30.9453C626.029 31.8828 625.821 32.7422 625.404 33.5234C624.987 34.3047 624.388 34.9883 623.607 35.5742C622.826 36.1471 621.888 36.5964 620.795 36.9219C619.714 37.2344 618.496 37.3906 617.142 37.3906C615.176 37.3906 613.509 37.0391 612.142 36.3359C610.788 35.6328 609.759 34.7409 609.056 33.6602C608.366 32.5664 608.021 31.4466 608.021 30.3008H613.353C613.379 31.069 613.574 31.6875 613.939 32.1562C614.317 32.625 614.792 32.9635 615.365 33.1719C615.951 33.3802 616.582 33.4844 617.259 33.4844C617.989 33.4844 618.594 33.3867 619.076 33.1914C619.558 32.9831 619.922 32.7096 620.17 32.3711C620.43 32.0195 620.56 31.6159 620.56 31.1602ZM633.555 34.2852C633.555 33.4518 633.841 32.7552 634.414 32.1953C635 31.6354 635.775 31.3555 636.738 31.3555C637.702 31.3555 638.47 31.6354 639.043 32.1953C639.629 32.7552 639.922 33.4518 639.922 34.2852C639.922 35.1185 639.629 35.8151 639.043 36.375C638.47 36.9349 637.702 37.2148 636.738 37.2148C635.775 37.2148 635 36.9349 634.414 36.375C633.841 35.8151 633.555 35.1185 633.555 34.2852ZM648.756 34.2852C648.756 33.4518 649.043 32.7552 649.616 32.1953C650.202 31.6354 650.976 31.3555 651.94 31.3555C652.903 31.3555 653.672 31.6354 654.245 32.1953C654.83 32.7552 655.123 33.4518 655.123 34.2852C655.123 35.1185 654.83 35.8151 654.245 36.375C653.672 36.9349 652.903 37.2148 651.94 37.2148C650.976 37.2148 650.202 36.9349 649.616 36.375C649.043 35.8151 648.756 35.1185 648.756 34.2852ZM663.958 34.2852C663.958 33.4518 664.244 32.7552 664.817 32.1953C665.403 31.6354 666.178 31.3555 667.141 31.3555C668.105 31.3555 668.873 31.6354 669.446 32.1953C670.032 32.7552 670.325 33.4518 670.325 34.2852C670.325 35.1185 670.032 35.8151 669.446 36.375C668.873 36.9349 668.105 37.2148 667.141 37.2148C666.178 37.2148 665.403 36.9349 664.817 36.375C664.244 35.8151 663.958 35.1185 663.958 34.2852Z" fill="#153989"/>
<path d="M270.82 529.027V539H268.652V526.32H270.703L270.82 529.027ZM270.305 532.18L269.402 532.145C269.41 531.277 269.539 530.477 269.789 529.742C270.039 529 270.391 528.355 270.844 527.809C271.297 527.262 271.836 526.84 272.461 526.543C273.094 526.238 273.793 526.086 274.559 526.086C275.184 526.086 275.746 526.172 276.246 526.344C276.746 526.508 277.172 526.773 277.523 527.141C277.883 527.508 278.156 527.984 278.344 528.57C278.531 529.148 278.625 529.855 278.625 530.691V539H276.445V530.668C276.445 530.004 276.348 529.473 276.152 529.074C275.957 528.668 275.672 528.375 275.297 528.195C274.922 528.008 274.461 527.914 273.914 527.914C273.375 527.914 272.883 528.027 272.438 528.254C272 528.48 271.621 528.793 271.301 529.191C270.988 529.59 270.742 530.047 270.562 530.562C270.391 531.07 270.305 531.609 270.305 532.18ZM283.504 532.801V532.531C283.504 531.617 283.637 530.77 283.902 529.988C284.168 529.199 284.551 528.516 285.051 527.938C285.551 527.352 286.156 526.898 286.867 526.578C287.578 526.25 288.375 526.086 289.258 526.086C290.148 526.086 290.949 526.25 291.66 526.578C292.379 526.898 292.988 527.352 293.488 527.938C293.996 528.516 294.383 529.199 294.648 529.988C294.914 530.77 295.047 531.617 295.047 532.531V532.801C295.047 533.715 294.914 534.562 294.648 535.344C294.383 536.125 293.996 536.809 293.488 537.395C292.988 537.973 292.383 538.426 291.672 538.754C290.969 539.074 290.172 539.234 289.281 539.234C288.39 539.234 287.59 539.074 286.879 538.754C286.168 538.426 285.558 537.973 285.051 537.395C284.551 536.809 284.168 536.125 283.902 535.344C283.637 534.562 283.504 533.715 283.504 532.801ZM285.672 532.531V532.801C285.672 533.434 285.746 534.031 285.894 534.594C286.043 535.148 286.265 535.641 286.562 536.07C286.867 536.5 287.246 536.84 287.699 537.09C288.152 537.332 288.68 537.453 289.281 537.453C289.875 537.453 290.394 537.332 290.84 537.09C291.293 536.84 291.668 536.5 291.965 536.07C292.262 535.641 292.484 535.148 292.633 534.594C292.789 534.031 292.867 533.434 292.867 532.801V532.531C292.867 531.906 292.789 531.316 292.633 530.762C292.484 530.199 292.258 529.703 291.953 529.273C291.656 528.836 291.281 528.492 290.828 528.242C290.383 527.992 289.859 527.867 289.258 527.867C288.664 527.867 288.14 527.992 287.687 528.242C287.242 528.492 286.867 528.836 286.562 529.273C286.265 529.703 286.043 530.199 285.894 530.762C285.746 531.316 285.672 531.906 285.672 532.531ZM310.207 521V539H308.039V521H310.207ZM309.691 532.18L308.789 532.145C308.796 531.277 308.925 530.477 309.175 529.742C309.425 529 309.777 528.355 310.23 527.809C310.683 527.262 311.222 526.84 311.847 526.543C312.48 526.238 313.179 526.086 313.945 526.086C314.57 526.086 315.132 526.172 315.632 526.344C316.132 526.508 316.558 526.773 316.91 527.141C317.269 527.508 317.542 527.984 317.73 528.57C317.917 529.148 318.011 529.855 318.011 530.691V539H315.832V530.668C315.832 530.004 315.734 529.473 315.539 529.074C315.343 528.668 315.058 528.375 314.683 528.195C314.308 528.008 313.847 527.914 313.3 527.914C312.761 527.914 312.269 528.027 311.824 528.254C311.386 528.48 311.007 528.793 310.687 529.191C310.375 529.59 310.128 530.047 309.949 530.562C309.777 531.07 309.691 531.609 309.691 532.18ZM328.679 539.234C327.796 539.234 326.995 539.086 326.277 538.789C325.566 538.484 324.952 538.059 324.437 537.512C323.929 536.965 323.538 536.316 323.265 535.566C322.992 534.816 322.855 533.996 322.855 533.105V532.613C322.855 531.582 323.007 530.664 323.312 529.859C323.617 529.047 324.031 528.359 324.554 527.797C325.077 527.234 325.671 526.809 326.335 526.52C326.999 526.23 327.687 526.086 328.398 526.086C329.304 526.086 330.085 526.242 330.742 526.555C331.406 526.867 331.949 527.305 332.37 527.867C332.792 528.422 333.105 529.078 333.308 529.836C333.511 530.586 333.613 531.406 333.613 532.297V533.27H324.144V531.5H331.445V531.336C331.413 530.773 331.296 530.227 331.093 529.695C330.898 529.164 330.585 528.727 330.156 528.383C329.726 528.039 329.14 527.867 328.398 527.867C327.906 527.867 327.452 527.973 327.038 528.184C326.624 528.387 326.269 528.691 325.972 529.098C325.675 529.504 325.445 530 325.281 530.586C325.117 531.172 325.035 531.848 325.035 532.613V533.105C325.035 533.707 325.117 534.273 325.281 534.805C325.452 535.328 325.699 535.789 326.019 536.188C326.347 536.586 326.742 536.898 327.202 537.125C327.671 537.352 328.202 537.465 328.796 537.465C329.562 537.465 330.21 537.309 330.742 536.996C331.273 536.684 331.738 536.266 332.136 535.742L333.449 536.785C333.175 537.199 332.827 537.594 332.406 537.969C331.984 538.344 331.464 538.648 330.847 538.883C330.238 539.117 329.515 539.234 328.679 539.234ZM340.46 528.84V539H338.28V526.32H340.343L340.46 528.84ZM340.015 532.18L339.007 532.145C339.015 531.277 339.128 530.477 339.347 529.742C339.566 529 339.89 528.355 340.32 527.809C340.749 527.262 341.284 526.84 341.925 526.543C342.566 526.238 343.308 526.086 344.152 526.086C344.745 526.086 345.292 526.172 345.792 526.344C346.292 526.508 346.726 526.77 347.093 527.129C347.46 527.488 347.745 527.949 347.948 528.512C348.152 529.074 348.253 529.754 348.253 530.551V539H346.085V530.656C346.085 529.992 345.972 529.461 345.745 529.062C345.527 528.664 345.214 528.375 344.808 528.195C344.402 528.008 343.925 527.914 343.378 527.914C342.738 527.914 342.202 528.027 341.773 528.254C341.343 528.48 340.999 528.793 340.741 529.191C340.484 529.59 340.296 530.047 340.179 530.562C340.07 531.07 340.015 531.609 340.015 532.18ZM348.23 530.984L346.777 531.43C346.784 530.734 346.898 530.066 347.116 529.426C347.343 528.785 347.667 528.215 348.089 527.715C348.519 527.215 349.046 526.82 349.671 526.531C350.296 526.234 351.011 526.086 351.816 526.086C352.495 526.086 353.097 526.176 353.62 526.355C354.152 526.535 354.597 526.812 354.956 527.188C355.323 527.555 355.601 528.027 355.788 528.605C355.976 529.184 356.07 529.871 356.07 530.668V539H353.89V530.645C353.89 529.934 353.777 529.383 353.55 528.992C353.331 528.594 353.019 528.316 352.613 528.16C352.214 527.996 351.738 527.914 351.183 527.914C350.706 527.914 350.284 527.996 349.917 528.16C349.55 528.324 349.241 528.551 348.991 528.84C348.741 529.121 348.55 529.445 348.417 529.812C348.292 530.18 348.23 530.57 348.23 530.984ZM360.937 532.801V532.531C360.937 531.617 361.069 530.77 361.335 529.988C361.601 529.199 361.983 528.516 362.483 527.938C362.983 527.352 363.589 526.898 364.3 526.578C365.011 526.25 365.808 526.086 366.69 526.086C367.581 526.086 368.382 526.25 369.093 526.578C369.812 526.898 370.421 527.352 370.921 527.938C371.429 528.516 371.815 529.199 372.081 529.988C372.347 530.77 372.48 531.617 372.48 532.531V532.801C372.48 533.715 372.347 534.562 372.081 535.344C371.815 536.125 371.429 536.809 370.921 537.395C370.421 537.973 369.815 538.426 369.105 538.754C368.401 539.074 367.605 539.234 366.714 539.234C365.823 539.234 365.022 539.074 364.312 538.754C363.601 538.426 362.991 537.973 362.483 537.395C361.983 536.809 361.601 536.125 361.335 535.344C361.069 534.562 360.937 533.715 360.937 532.801ZM363.105 532.531V532.801C363.105 533.434 363.179 534.031 363.327 534.594C363.476 535.148 363.698 535.641 363.995 536.07C364.3 536.5 364.679 536.84 365.132 537.09C365.585 537.332 366.112 537.453 366.714 537.453C367.308 537.453 367.827 537.332 368.272 537.09C368.726 536.84 369.101 536.5 369.397 536.07C369.694 535.641 369.917 535.148 370.065 534.594C370.222 534.031 370.3 533.434 370.3 532.801V532.531C370.3 531.906 370.222 531.316 370.065 530.762C369.917 530.199 369.69 529.703 369.386 529.273C369.089 528.836 368.714 528.492 368.261 528.242C367.815 527.992 367.292 527.867 366.69 527.867C366.097 527.867 365.573 527.992 365.12 528.242C364.675 528.492 364.3 528.836 363.995 529.273C363.698 529.703 363.476 530.199 363.327 530.762C363.179 531.316 363.105 531.906 363.105 532.531ZM384.741 535.637C384.741 535.324 384.671 535.035 384.53 534.77C384.397 534.496 384.12 534.25 383.698 534.031C383.284 533.805 382.659 533.609 381.823 533.445C381.12 533.297 380.483 533.121 379.913 532.918C379.35 532.715 378.87 532.469 378.472 532.18C378.081 531.891 377.78 531.551 377.569 531.16C377.358 530.77 377.253 530.312 377.253 529.789C377.253 529.289 377.362 528.816 377.581 528.371C377.808 527.926 378.124 527.531 378.53 527.188C378.944 526.844 379.44 526.574 380.018 526.379C380.597 526.184 381.241 526.086 381.952 526.086C382.968 526.086 383.835 526.266 384.554 526.625C385.272 526.984 385.823 527.465 386.206 528.066C386.589 528.66 386.78 529.32 386.78 530.047H384.612C384.612 529.695 384.507 529.355 384.296 529.027C384.093 528.691 383.792 528.414 383.393 528.195C383.003 527.977 382.522 527.867 381.952 527.867C381.35 527.867 380.862 527.961 380.487 528.148C380.12 528.328 379.85 528.559 379.679 528.84C379.515 529.121 379.433 529.418 379.433 529.73C379.433 529.965 379.472 530.176 379.55 530.363C379.636 530.543 379.784 530.711 379.995 530.867C380.206 531.016 380.503 531.156 380.886 531.289C381.268 531.422 381.757 531.555 382.35 531.688C383.39 531.922 384.245 532.203 384.917 532.531C385.589 532.859 386.089 533.262 386.417 533.738C386.745 534.215 386.909 534.793 386.909 535.473C386.909 536.027 386.792 536.535 386.558 536.996C386.331 537.457 385.999 537.855 385.561 538.191C385.132 538.52 384.616 538.777 384.015 538.965C383.421 539.145 382.753 539.234 382.011 539.234C380.893 539.234 379.948 539.035 379.175 538.637C378.401 538.238 377.815 537.723 377.417 537.09C377.018 536.457 376.819 535.789 376.819 535.086H378.999C379.03 535.68 379.202 536.152 379.515 536.504C379.827 536.848 380.21 537.094 380.663 537.242C381.116 537.383 381.565 537.453 382.011 537.453C382.604 537.453 383.1 537.375 383.499 537.219C383.905 537.062 384.214 536.848 384.425 536.574C384.636 536.301 384.741 535.988 384.741 535.637ZM405.292 539.234C404.409 539.234 403.608 539.086 402.889 538.789C402.178 538.484 401.565 538.059 401.049 537.512C400.542 536.965 400.151 536.316 399.878 535.566C399.604 534.816 399.467 533.996 399.467 533.105V532.613C399.467 531.582 399.62 530.664 399.924 529.859C400.229 529.047 400.643 528.359 401.167 527.797C401.69 527.234 402.284 526.809 402.948 526.52C403.612 526.23 404.299 526.086 405.01 526.086C405.917 526.086 406.698 526.242 407.354 526.555C408.018 526.867 408.561 527.305 408.983 527.867C409.405 528.422 409.717 529.078 409.92 529.836C410.124 530.586 410.225 531.406 410.225 532.297V533.27H400.756V531.5H408.057V531.336C408.026 530.773 407.909 530.227 407.706 529.695C407.51 529.164 407.198 528.727 406.768 528.383C406.338 528.039 405.753 527.867 405.01 527.867C404.518 527.867 404.065 527.973 403.651 528.184C403.237 528.387 402.881 528.691 402.585 529.098C402.288 529.504 402.057 530 401.893 530.586C401.729 531.172 401.647 531.848 401.647 532.613V533.105C401.647 533.707 401.729 534.273 401.893 534.805C402.065 535.328 402.311 535.789 402.631 536.188C402.96 536.586 403.354 536.898 403.815 537.125C404.284 537.352 404.815 537.465 405.409 537.465C406.174 537.465 406.823 537.309 407.354 536.996C407.885 536.684 408.35 536.266 408.749 535.742L410.061 536.785C409.788 537.199 409.44 537.594 409.018 537.969C408.596 538.344 408.077 538.648 407.46 538.883C406.85 539.117 406.128 539.234 405.292 539.234ZM417.084 529.027V539H414.916V526.32H416.967L417.084 529.027ZM416.569 532.18L415.666 532.145C415.674 531.277 415.803 530.477 416.053 529.742C416.303 529 416.655 528.355 417.108 527.809C417.561 527.262 418.1 526.84 418.725 526.543C419.358 526.238 420.057 526.086 420.823 526.086C421.448 526.086 422.01 526.172 422.51 526.344C423.01 526.508 423.436 526.773 423.788 527.141C424.147 527.508 424.42 527.984 424.608 528.57C424.795 529.148 424.889 529.855 424.889 530.691V539H422.709V530.668C422.709 530.004 422.612 529.473 422.416 529.074C422.221 528.668 421.936 528.375 421.561 528.195C421.186 528.008 420.725 527.914 420.178 527.914C419.639 527.914 419.147 528.027 418.702 528.254C418.264 528.48 417.885 528.793 417.565 529.191C417.252 529.59 417.006 530.047 416.827 530.562C416.655 531.07 416.569 531.609 416.569 532.18ZM435.416 537.453C435.932 537.453 436.408 537.348 436.846 537.137C437.283 536.926 437.643 536.637 437.924 536.27C438.205 535.895 438.365 535.469 438.405 534.992H440.467C440.428 535.742 440.174 536.441 439.705 537.09C439.244 537.73 438.639 538.25 437.889 538.648C437.139 539.039 436.315 539.234 435.416 539.234C434.463 539.234 433.631 539.066 432.92 538.73C432.217 538.395 431.631 537.934 431.162 537.348C430.701 536.762 430.354 536.09 430.119 535.332C429.893 534.566 429.78 533.758 429.78 532.906V532.414C429.78 531.562 429.893 530.758 430.119 530C430.354 529.234 430.701 528.559 431.162 527.973C431.631 527.387 432.217 526.926 432.92 526.59C433.631 526.254 434.463 526.086 435.416 526.086C436.408 526.086 437.276 526.289 438.018 526.695C438.76 527.094 439.342 527.641 439.764 528.336C440.194 529.023 440.428 529.805 440.467 530.68H438.405C438.365 530.156 438.217 529.684 437.959 529.262C437.709 528.84 437.365 528.504 436.928 528.254C436.498 527.996 435.994 527.867 435.416 527.867C434.752 527.867 434.194 528 433.74 528.266C433.295 528.523 432.94 528.875 432.674 529.32C432.416 529.758 432.229 530.246 432.112 530.785C432.002 531.316 431.947 531.859 431.947 532.414V532.906C431.947 533.461 432.002 534.008 432.112 534.547C432.221 535.086 432.405 535.574 432.662 536.012C432.928 536.449 433.283 536.801 433.729 537.066C434.182 537.324 434.744 537.453 435.416 537.453ZM444.49 532.801V532.531C444.49 531.617 444.623 530.77 444.889 529.988C445.154 529.199 445.537 528.516 446.037 527.938C446.537 527.352 447.143 526.898 447.854 526.578C448.565 526.25 449.361 526.086 450.244 526.086C451.135 526.086 451.936 526.25 452.647 526.578C453.365 526.898 453.975 527.352 454.475 527.938C454.982 528.516 455.369 529.199 455.635 529.988C455.9 530.77 456.033 531.617 456.033 532.531V532.801C456.033 533.715 455.9 534.562 455.635 535.344C455.369 536.125 454.982 536.809 454.475 537.395C453.975 537.973 453.369 538.426 452.658 538.754C451.955 539.074 451.158 539.234 450.268 539.234C449.377 539.234 448.576 539.074 447.865 538.754C447.154 538.426 446.545 537.973 446.037 537.395C445.537 536.809 445.154 536.125 444.889 535.344C444.623 534.562 444.49 533.715 444.49 532.801ZM446.658 532.531V532.801C446.658 533.434 446.732 534.031 446.881 534.594C447.029 535.148 447.252 535.641 447.549 536.07C447.854 536.5 448.232 536.84 448.686 537.09C449.139 537.332 449.666 537.453 450.268 537.453C450.861 537.453 451.381 537.332 451.826 537.09C452.279 536.84 452.654 536.5 452.951 536.07C453.248 535.641 453.471 535.148 453.619 534.594C453.775 534.031 453.854 533.434 453.854 532.801V532.531C453.854 531.906 453.775 531.316 453.619 530.762C453.471 530.199 453.244 529.703 452.94 529.273C452.643 528.836 452.268 528.492 451.815 528.242C451.369 527.992 450.846 527.867 450.244 527.867C449.65 527.867 449.127 527.992 448.674 528.242C448.229 528.492 447.854 528.836 447.549 529.273C447.252 529.703 447.029 530.199 446.881 530.762C446.732 531.316 446.658 531.906 446.658 532.531ZM463.08 529.027V539H460.912V526.32H462.963L463.08 529.027ZM462.564 532.18L461.662 532.145C461.67 531.277 461.799 530.477 462.049 529.742C462.299 529 462.65 528.355 463.103 527.809C463.557 527.262 464.096 526.84 464.721 526.543C465.353 526.238 466.053 526.086 466.818 526.086C467.443 526.086 468.006 526.172 468.506 526.344C469.006 526.508 469.432 526.773 469.783 527.141C470.143 527.508 470.416 527.984 470.603 528.57C470.791 529.148 470.885 529.855 470.885 530.691V539H468.705V530.668C468.705 530.004 468.607 529.473 468.412 529.074C468.217 528.668 467.932 528.375 467.557 528.195C467.182 528.008 466.721 527.914 466.174 527.914C465.635 527.914 465.143 528.027 464.697 528.254C464.26 528.48 463.881 528.793 463.56 529.191C463.248 529.59 463.002 530.047 462.822 530.562C462.65 531.07 462.564 531.609 462.564 532.18ZM481.646 526.32V527.984H474.791V526.32H481.646ZM477.111 523.238H479.279V535.859C479.279 536.289 479.345 536.613 479.478 536.832C479.611 537.051 479.783 537.195 479.994 537.266C480.205 537.336 480.431 537.371 480.674 537.371C480.853 537.371 481.041 537.355 481.236 537.324C481.439 537.285 481.592 537.254 481.693 537.23L481.705 539C481.533 539.055 481.306 539.105 481.025 539.152C480.752 539.207 480.42 539.234 480.029 539.234C479.498 539.234 479.01 539.129 478.564 538.918C478.119 538.707 477.763 538.355 477.498 537.863C477.24 537.363 477.111 536.691 477.111 535.848V523.238ZM488.517 528.312V539H486.349V526.32H488.459L488.517 528.312ZM492.478 526.25L492.466 528.266C492.287 528.227 492.115 528.203 491.951 528.195C491.795 528.18 491.615 528.172 491.412 528.172C490.912 528.172 490.47 528.25 490.087 528.406C489.705 528.562 489.38 528.781 489.115 529.062C488.849 529.344 488.638 529.68 488.482 530.07C488.334 530.453 488.236 530.875 488.189 531.336L487.58 531.688C487.58 530.922 487.654 530.203 487.802 529.531C487.959 528.859 488.197 528.266 488.517 527.75C488.837 527.227 489.244 526.82 489.736 526.531C490.236 526.234 490.83 526.086 491.517 526.086C491.673 526.086 491.853 526.105 492.056 526.145C492.259 526.176 492.4 526.211 492.478 526.25ZM503.65 536.832V530.305C503.65 529.805 503.548 529.371 503.345 529.004C503.15 528.629 502.853 528.34 502.455 528.137C502.056 527.934 501.564 527.832 500.978 527.832C500.431 527.832 499.951 527.926 499.537 528.113C499.13 528.301 498.81 528.547 498.576 528.852C498.349 529.156 498.236 529.484 498.236 529.836H496.068C496.068 529.383 496.185 528.934 496.419 528.488C496.654 528.043 496.99 527.641 497.427 527.281C497.872 526.914 498.404 526.625 499.021 526.414C499.646 526.195 500.341 526.086 501.107 526.086C502.029 526.086 502.841 526.242 503.544 526.555C504.255 526.867 504.81 527.34 505.208 527.973C505.615 528.598 505.818 529.383 505.818 530.328V536.234C505.818 536.656 505.853 537.105 505.923 537.582C506.001 538.059 506.115 538.469 506.263 538.812V539H504.001C503.892 538.75 503.806 538.418 503.744 538.004C503.681 537.582 503.65 537.191 503.65 536.832ZM504.025 531.312L504.048 532.836H501.857C501.24 532.836 500.689 532.887 500.205 532.988C499.72 533.082 499.314 533.227 498.986 533.422C498.658 533.617 498.408 533.863 498.236 534.16C498.064 534.449 497.978 534.789 497.978 535.18C497.978 535.578 498.068 535.941 498.247 536.27C498.427 536.598 498.697 536.859 499.056 537.055C499.423 537.242 499.872 537.336 500.404 537.336C501.068 537.336 501.654 537.195 502.162 536.914C502.669 536.633 503.072 536.289 503.369 535.883C503.673 535.477 503.837 535.082 503.861 534.699L504.787 535.742C504.732 536.07 504.583 536.434 504.341 536.832C504.099 537.23 503.775 537.613 503.369 537.98C502.97 538.34 502.494 538.641 501.939 538.883C501.392 539.117 500.775 539.234 500.087 539.234C499.228 539.234 498.474 539.066 497.826 538.73C497.185 538.395 496.685 537.945 496.326 537.383C495.974 536.812 495.798 536.176 495.798 535.473C495.798 534.793 495.931 534.195 496.197 533.68C496.462 533.156 496.845 532.723 497.345 532.379C497.845 532.027 498.447 531.762 499.15 531.582C499.853 531.402 500.638 531.312 501.505 531.312H504.025ZM519.38 536.539V521H521.56V539H519.568L519.38 536.539ZM510.849 532.801V532.555C510.849 531.586 510.966 530.707 511.2 529.918C511.443 529.121 511.783 528.438 512.22 527.867C512.665 527.297 513.193 526.859 513.802 526.555C514.419 526.242 515.107 526.086 515.865 526.086C516.661 526.086 517.357 526.227 517.95 526.508C518.552 526.781 519.06 527.184 519.474 527.715C519.896 528.238 520.228 528.871 520.47 529.613C520.712 530.355 520.88 531.195 520.974 532.133V533.211C520.888 534.141 520.72 534.977 520.47 535.719C520.228 536.461 519.896 537.094 519.474 537.617C519.06 538.141 518.552 538.543 517.95 538.824C517.349 539.098 516.646 539.234 515.841 539.234C515.099 539.234 514.419 539.074 513.802 538.754C513.193 538.434 512.665 537.984 512.22 537.406C511.783 536.828 511.443 536.148 511.2 535.367C510.966 534.578 510.849 533.723 510.849 532.801ZM513.029 532.555V532.801C513.029 533.434 513.091 534.027 513.216 534.582C513.349 535.137 513.552 535.625 513.825 536.047C514.099 536.469 514.447 536.801 514.868 537.043C515.29 537.277 515.794 537.395 516.38 537.395C517.099 537.395 517.689 537.242 518.15 536.938C518.618 536.633 518.993 536.23 519.275 535.73C519.556 535.23 519.775 534.688 519.931 534.102V531.277C519.837 530.848 519.7 530.434 519.521 530.035C519.349 529.629 519.122 529.27 518.841 528.957C518.568 528.637 518.228 528.383 517.822 528.195C517.423 528.008 516.95 527.914 516.404 527.914C515.81 527.914 515.298 528.039 514.868 528.289C514.447 528.531 514.099 528.867 513.825 529.297C513.552 529.719 513.349 530.211 513.216 530.773C513.091 531.328 513.029 531.922 513.029 532.555ZM526.521 532.801V532.531C526.521 531.617 526.653 530.77 526.919 529.988C527.185 529.199 527.568 528.516 528.068 527.938C528.568 527.352 529.173 526.898 529.884 526.578C530.595 526.25 531.392 526.086 532.275 526.086C533.165 526.086 533.966 526.25 534.677 526.578C535.396 526.898 536.005 527.352 536.505 527.938C537.013 528.516 537.4 529.199 537.665 529.988C537.931 530.77 538.064 531.617 538.064 532.531V532.801C538.064 533.715 537.931 534.562 537.665 535.344C537.4 536.125 537.013 536.809 536.505 537.395C536.005 537.973 535.4 538.426 534.689 538.754C533.985 539.074 533.189 539.234 532.298 539.234C531.407 539.234 530.607 539.074 529.896 538.754C529.185 538.426 528.575 537.973 528.068 537.395C527.568 536.809 527.185 536.125 526.919 535.344C526.653 534.562 526.521 533.715 526.521 532.801ZM528.689 532.531V532.801C528.689 533.434 528.763 534.031 528.911 534.594C529.06 535.148 529.282 535.641 529.579 536.07C529.884 536.5 530.263 536.84 530.716 537.09C531.169 537.332 531.696 537.453 532.298 537.453C532.892 537.453 533.411 537.332 533.857 537.09C534.31 536.84 534.685 536.5 534.982 536.07C535.278 535.641 535.501 535.148 535.65 534.594C535.806 534.031 535.884 533.434 535.884 532.801V532.531C535.884 531.906 535.806 531.316 535.65 530.762C535.501 530.199 535.275 529.703 534.97 529.273C534.673 528.836 534.298 528.492 533.845 528.242C533.4 527.992 532.876 527.867 532.275 527.867C531.681 527.867 531.157 527.992 530.704 528.242C530.259 528.492 529.884 528.836 529.579 529.273C529.282 529.703 529.06 530.199 528.911 530.762C528.763 531.316 528.689 531.906 528.689 532.531ZM553.411 521V539H551.231V521H553.411ZM566.528 536.832V530.305C566.528 529.805 566.426 529.371 566.223 529.004C566.028 528.629 565.731 528.34 565.333 528.137C564.934 527.934 564.442 527.832 563.856 527.832C563.309 527.832 562.829 527.926 562.415 528.113C562.008 528.301 561.688 528.547 561.454 528.852C561.227 529.156 561.114 529.484 561.114 529.836H558.946C558.946 529.383 559.063 528.934 559.298 528.488C559.532 528.043 559.868 527.641 560.305 527.281C560.751 526.914 561.282 526.625 561.899 526.414C562.524 526.195 563.219 526.086 563.985 526.086C564.907 526.086 565.719 526.242 566.423 526.555C567.133 526.867 567.688 527.34 568.087 527.973C568.493 528.598 568.696 529.383 568.696 530.328V536.234C568.696 536.656 568.731 537.105 568.801 537.582C568.88 538.059 568.993 538.469 569.141 538.812V539H566.88C566.77 538.75 566.684 538.418 566.622 538.004C566.559 537.582 566.528 537.191 566.528 536.832ZM566.903 531.312L566.926 532.836H564.735C564.118 532.836 563.567 532.887 563.083 532.988C562.598 533.082 562.192 533.227 561.864 533.422C561.536 533.617 561.286 533.863 561.114 534.16C560.942 534.449 560.856 534.789 560.856 535.18C560.856 535.578 560.946 535.941 561.126 536.27C561.305 536.598 561.575 536.859 561.934 537.055C562.301 537.242 562.751 537.336 563.282 537.336C563.946 537.336 564.532 537.195 565.04 536.914C565.548 536.633 565.95 536.289 566.247 535.883C566.551 535.477 566.715 535.082 566.739 534.699L567.665 535.742C567.61 536.07 567.462 536.434 567.219 536.832C566.977 537.23 566.653 537.613 566.247 537.98C565.848 538.34 565.372 538.641 564.817 538.883C564.27 539.117 563.653 539.234 562.965 539.234C562.106 539.234 561.352 539.066 560.704 538.73C560.063 538.395 559.563 537.945 559.204 537.383C558.852 536.812 558.676 536.176 558.676 535.473C558.676 534.793 558.809 534.195 559.075 533.68C559.34 533.156 559.723 532.723 560.223 532.379C560.723 532.027 561.325 531.762 562.028 531.582C562.731 531.402 563.516 531.312 564.383 531.312H566.903ZM584.547 528.758V543.875H582.367V526.32H584.36L584.547 528.758ZM593.09 532.555V532.801C593.09 533.723 592.981 534.578 592.762 535.367C592.543 536.148 592.223 536.828 591.801 537.406C591.387 537.984 590.875 538.434 590.266 538.754C589.657 539.074 588.957 539.234 588.168 539.234C587.364 539.234 586.653 539.102 586.035 538.836C585.418 538.57 584.895 538.184 584.465 537.676C584.035 537.168 583.692 536.559 583.434 535.848C583.184 535.137 583.012 534.336 582.918 533.445V532.133C583.012 531.195 583.188 530.355 583.446 529.613C583.703 528.871 584.043 528.238 584.465 527.715C584.895 527.184 585.414 526.781 586.024 526.508C586.633 526.227 587.336 526.086 588.133 526.086C588.93 526.086 589.637 526.242 590.254 526.555C590.871 526.859 591.391 527.297 591.813 527.867C592.235 528.438 592.551 529.121 592.762 529.918C592.981 530.707 593.09 531.586 593.09 532.555ZM590.91 532.801V532.555C590.91 531.922 590.844 531.328 590.711 530.773C590.578 530.211 590.371 529.719 590.09 529.297C589.817 528.867 589.465 528.531 589.035 528.289C588.606 528.039 588.094 527.914 587.5 527.914C586.953 527.914 586.477 528.008 586.071 528.195C585.672 528.383 585.332 528.637 585.051 528.957C584.77 529.27 584.539 529.629 584.36 530.035C584.188 530.434 584.059 530.848 583.973 531.277V534.312C584.129 534.859 584.348 535.375 584.629 535.859C584.91 536.336 585.285 536.723 585.754 537.02C586.223 537.309 586.813 537.453 587.524 537.453C588.11 537.453 588.614 537.332 589.035 537.09C589.465 536.84 589.817 536.5 590.09 536.07C590.371 535.641 590.578 535.148 590.711 534.594C590.844 534.031 590.91 533.434 590.91 532.801ZM605.492 536.832V530.305C605.492 529.805 605.391 529.371 605.188 529.004C604.992 528.629 604.695 528.34 604.297 528.137C603.899 527.934 603.406 527.832 602.82 527.832C602.274 527.832 601.793 527.926 601.379 528.113C600.973 528.301 600.652 528.547 600.418 528.852C600.192 529.156 600.078 529.484 600.078 529.836H597.91C597.91 529.383 598.027 528.934 598.262 528.488C598.496 528.043 598.832 527.641 599.27 527.281C599.715 526.914 600.246 526.625 600.863 526.414C601.488 526.195 602.184 526.086 602.949 526.086C603.871 526.086 604.684 526.242 605.387 526.555C606.098 526.867 606.652 527.34 607.051 527.973C607.457 528.598 607.66 529.383 607.66 530.328V536.234C607.66 536.656 607.695 537.105 607.766 537.582C607.844 538.059 607.957 538.469 608.106 538.812V539H605.844C605.735 538.75 605.649 538.418 605.586 538.004C605.524 537.582 605.492 537.191 605.492 536.832ZM605.867 531.312L605.891 532.836H603.699C603.082 532.836 602.531 532.887 602.047 532.988C601.563 533.082 601.156 533.227 600.828 533.422C600.5 533.617 600.25 533.863 600.078 534.16C599.906 534.449 599.82 534.789 599.82 535.18C599.82 535.578 599.91 535.941 600.09 536.27C600.27 536.598 600.539 536.859 600.899 537.055C601.266 537.242 601.715 537.336 602.246 537.336C602.91 537.336 603.496 537.195 604.004 536.914C604.512 536.633 604.914 536.289 605.211 535.883C605.516 535.477 605.68 535.082 605.703 534.699L606.629 535.742C606.574 536.07 606.426 536.434 606.184 536.832C605.942 537.23 605.617 537.613 605.211 537.98C604.813 538.34 604.336 538.641 603.781 538.883C603.235 539.117 602.617 539.234 601.93 539.234C601.07 539.234 600.317 539.066 599.668 538.73C599.027 538.395 598.527 537.945 598.168 537.383C597.817 536.812 597.641 536.176 597.641 535.473C597.641 534.793 597.774 534.195 598.039 533.68C598.305 533.156 598.688 532.723 599.188 532.379C599.688 532.027 600.289 531.762 600.992 531.582C601.695 531.402 602.481 531.312 603.348 531.312H605.867ZM601.988 524.445L604.262 521H606.875L603.735 524.445H601.988ZM621.445 526.32H623.414V538.73C623.414 539.848 623.188 540.801 622.734 541.59C622.281 542.379 621.648 542.977 620.836 543.383C620.031 543.797 619.102 544.004 618.047 544.004C617.609 544.004 617.094 543.934 616.5 543.793C615.914 543.66 615.336 543.43 614.766 543.102C614.203 542.781 613.73 542.348 613.348 541.801L614.484 540.512C615.016 541.152 615.57 541.598 616.148 541.848C616.734 542.098 617.312 542.223 617.883 542.223C618.57 542.223 619.164 542.094 619.664 541.836C620.164 541.578 620.551 541.195 620.824 540.688C621.105 540.188 621.246 539.57 621.246 538.836V529.109L621.445 526.32ZM612.715 532.801V532.555C612.715 531.586 612.828 530.707 613.055 529.918C613.289 529.121 613.621 528.438 614.051 527.867C614.488 527.297 615.016 526.859 615.633 526.555C616.25 526.242 616.945 526.086 617.719 526.086C618.516 526.086 619.211 526.227 619.805 526.508C620.406 526.781 620.914 527.184 621.328 527.715C621.75 528.238 622.082 528.871 622.324 529.613C622.566 530.355 622.734 531.195 622.828 532.133V533.211C622.742 534.141 622.574 534.977 622.324 535.719C622.082 536.461 621.75 537.094 621.328 537.617C620.914 538.141 620.406 538.543 619.805 538.824C619.203 539.098 618.5 539.234 617.695 539.234C616.938 539.234 616.25 539.074 615.633 538.754C615.023 538.434 614.5 537.984 614.062 537.406C613.625 536.828 613.289 536.148 613.055 535.367C612.828 534.578 612.715 533.723 612.715 532.801ZM614.883 532.555V532.801C614.883 533.434 614.945 534.027 615.07 534.582C615.203 535.137 615.402 535.625 615.668 536.047C615.941 536.469 616.289 536.801 616.711 537.043C617.133 537.277 617.637 537.395 618.223 537.395C618.941 537.395 619.535 537.242 620.004 536.938C620.473 536.633 620.844 536.23 621.117 535.73C621.398 535.23 621.617 534.688 621.773 534.102V531.277C621.688 530.848 621.555 530.434 621.375 530.035C621.203 529.629 620.977 529.27 620.695 528.957C620.422 528.637 620.082 528.383 619.676 528.195C619.27 528.008 618.793 527.914 618.246 527.914C617.652 527.914 617.141 528.039 616.711 528.289C616.289 528.531 615.941 528.867 615.668 529.297C615.402 529.719 615.203 530.211 615.07 530.773C614.945 531.328 614.883 531.922 614.883 532.555ZM631.223 526.32V539H629.043V526.32H631.223ZM628.879 522.957C628.879 522.605 628.984 522.309 629.195 522.066C629.414 521.824 629.734 521.703 630.156 521.703C630.57 521.703 630.887 521.824 631.105 522.066C631.332 522.309 631.445 522.605 631.445 522.957C631.445 523.293 631.332 523.582 631.105 523.824C630.887 524.059 630.57 524.176 630.156 524.176C629.734 524.176 629.414 524.059 629.195 523.824C628.984 523.582 628.879 523.293 628.879 522.957ZM639.031 529.027V539H636.863V526.32H638.914L639.031 529.027ZM638.515 532.18L637.613 532.145C637.621 531.277 637.75 530.477 638 529.742C638.25 529 638.601 528.355 639.054 527.809C639.508 527.262 640.047 526.84 640.672 526.543C641.304 526.238 642.004 526.086 642.769 526.086C643.394 526.086 643.957 526.172 644.457 526.344C644.957 526.508 645.383 526.773 645.734 527.141C646.093 527.508 646.367 527.984 646.554 528.57C646.742 529.148 646.836 529.855 646.836 530.691V539H644.656V530.668C644.656 530.004 644.558 529.473 644.363 529.074C644.168 528.668 643.883 528.375 643.508 528.195C643.133 528.008 642.672 527.914 642.125 527.914C641.586 527.914 641.093 528.027 640.648 528.254C640.211 528.48 639.832 528.793 639.511 529.191C639.199 529.59 638.953 530.047 638.773 530.562C638.601 531.07 638.515 531.609 638.515 532.18ZM659.765 536.832V530.305C659.765 529.805 659.664 529.371 659.46 529.004C659.265 528.629 658.968 528.34 658.57 528.137C658.171 527.934 657.679 527.832 657.093 527.832C656.546 527.832 656.066 527.926 655.652 528.113C655.246 528.301 654.925 528.547 654.691 528.852C654.464 529.156 654.351 529.484 654.351 529.836H652.183C652.183 529.383 652.3 528.934 652.535 528.488C652.769 528.043 653.105 527.641 653.543 527.281C653.988 526.914 654.519 526.625 655.136 526.414C655.761 526.195 656.457 526.086 657.222 526.086C658.144 526.086 658.957 526.242 659.66 526.555C660.371 526.867 660.925 527.34 661.324 527.973C661.73 528.598 661.933 529.383 661.933 530.328V536.234C661.933 536.656 661.968 537.105 662.039 537.582C662.117 538.059 662.23 538.469 662.378 538.812V539H660.117C660.007 538.75 659.921 538.418 659.859 538.004C659.796 537.582 659.765 537.191 659.765 536.832ZM660.14 531.312L660.164 532.836H657.972C657.355 532.836 656.804 532.887 656.32 532.988C655.835 533.082 655.429 533.227 655.101 533.422C654.773 533.617 654.523 533.863 654.351 534.16C654.179 534.449 654.093 534.789 654.093 535.18C654.093 535.578 654.183 535.941 654.363 536.27C654.543 536.598 654.812 536.859 655.171 537.055C655.539 537.242 655.988 537.336 656.519 537.336C657.183 537.336 657.769 537.195 658.277 536.914C658.785 536.633 659.187 536.289 659.484 535.883C659.789 535.477 659.953 535.082 659.976 534.699L660.902 535.742C660.847 536.07 660.699 536.434 660.457 536.832C660.214 537.23 659.89 537.613 659.484 537.98C659.085 538.34 658.609 538.641 658.054 538.883C657.507 539.117 656.89 539.234 656.203 539.234C655.343 539.234 654.589 539.066 653.941 538.73C653.3 538.395 652.8 537.945 652.441 537.383C652.089 536.812 651.914 536.176 651.914 535.473C651.914 534.793 652.046 534.195 652.312 533.68C652.578 533.156 652.96 532.723 653.46 532.379C653.96 532.027 654.562 531.762 655.265 531.582C655.968 531.402 656.753 531.312 657.621 531.312H660.14Z" fill="#153989"/>
</svg>
